<svg width="29" height="29" viewBox="0 0 29 29" fill="none" xmlns="http://www.w3.org/2000/svg">
<path d="M13.2916 4.83332C14.0758 4.83332 14.802 5.08224 15.3953 5.50515C13.8342 6.31836 12.3987 7.34182 10.875 8.22149L12.0833 10.3143C13.9864 9.21474 15.7711 7.83724 17.835 7.04457C18.4114 6.82466 19.0344 6.75546 19.6451 6.84353C20.2557 6.9316 20.8338 7.17401 21.3246 7.54784C21.8155 7.92168 22.2028 8.41456 22.45 8.97985C22.6971 9.54515 22.796 10.1642 22.7372 10.7783C21.2521 9.83219 19.6475 9.09994 18.125 8.22149L16.9166 10.3143C18.8198 11.4139 20.9065 12.2694 22.6236 13.6614C23.1021 14.0507 23.4734 14.5557 23.7023 15.1285C23.9313 15.7014 24.0103 16.3232 23.9319 16.935C23.8535 17.5469 23.6203 18.1287 23.2543 18.6253C22.8884 19.122 22.4018 19.517 21.8406 19.7732C21.9191 18.0138 21.75 16.2581 21.75 14.5H19.3333C19.3333 16.6967 19.6354 18.9334 19.2886 21.1168C19.1906 21.7259 18.9388 22.3 18.5571 22.7847C18.1754 23.2693 17.6763 23.6486 17.1071 23.8865C16.5379 24.1245 15.9174 24.2133 15.3043 24.1446C14.6912 24.0758 14.1057 23.8518 13.6034 23.4936C15.1658 22.6804 16.6025 21.6569 18.125 20.7785L16.9166 18.6857C15.0135 19.7852 13.2288 21.1627 11.165 21.9554C10.5885 22.1753 9.96549 22.2445 9.35483 22.1564C8.74418 22.0684 8.1661 21.826 7.67528 21.4521C7.18446 21.0783 6.79714 20.5854 6.54996 20.0201C6.30279 19.4548 6.20393 18.8358 6.26275 18.2217C7.749 19.1666 9.35246 19.8988 10.875 20.7785L12.0833 18.6857C10.1802 17.5861 8.09338 16.7306 6.37513 15.3386C5.89665 14.9492 5.52542 14.4441 5.29658 13.8712C5.06774 13.2983 4.98884 12.6765 5.06736 12.0646C5.14587 11.4527 5.3792 10.8709 5.74527 10.3744C6.11134 9.87779 6.59804 9.48282 7.15934 9.22682C7.08079 10.9862 7.24996 12.7419 7.24996 14.5H9.66663C9.66663 12.3032 9.36454 10.0666 9.71134 7.88315C9.84833 7.03225 10.2839 6.25796 10.94 5.69908C11.5961 5.1402 12.4298 4.83328 13.2916 4.83332ZM17.8748 4.52157C17.1761 3.70835 16.2735 3.0957 15.2597 2.74649C14.246 2.39727 13.1576 2.32407 12.1062 2.5344C11.0548 2.74472 10.0784 3.23099 9.27698 3.94332C8.47559 4.65564 7.87817 5.56836 7.546 6.58782C6.4923 6.78636 5.51041 7.2617 4.70108 7.96504C3.89176 8.66839 3.28415 9.57441 2.94061 10.5901C2.59708 11.6058 2.52999 12.6947 2.74624 13.7449C2.96248 14.7951 3.45427 15.7689 4.17113 16.5662C3.81609 17.5781 3.73673 18.6663 3.94119 19.719C4.14566 20.7717 4.62658 21.7511 5.3346 22.5565C6.04262 23.362 6.95222 23.9645 7.97004 24.3022C8.98785 24.64 10.0772 24.7008 11.1263 24.4784C11.8251 25.2916 12.7277 25.9043 13.7414 26.2535C14.7551 26.6027 15.8435 26.6759 16.8949 26.4656C17.9463 26.2553 18.9228 25.769 19.7242 25.0567C20.5255 24.3443 21.123 23.4316 21.4551 22.4122C22.5088 22.2136 23.4907 21.7383 24.3 21.0349C25.1094 20.3316 25.717 19.4256 26.0605 18.4098C26.4041 17.3941 26.4711 16.3053 26.2549 15.2551C26.0387 14.2049 25.5469 13.2311 24.83 12.4337C25.185 11.4218 25.2644 10.3337 25.0599 9.28094C24.8555 8.22822 24.3745 7.24888 23.6665 6.44344C22.9585 5.638 22.0489 5.03549 21.0311 4.69774C20.0133 4.36 18.9239 4.29919 17.8748 4.52157Z" fill="url(#paint0_radial_2316_12)"/>
<path d="M10.9886 12.9858L11.2784 11.2727H18.6548L18.3651 12.9858H15.7188L14.5597 20H12.4801L13.6392 12.9858H10.9886Z" fill="#2EB0CC"/>
<defs>
<radialGradient id="paint0_radial_2316_12" cx="0" cy="0" r="1" gradientUnits="userSpaceOnUse" gradientTransform="translate(14.5006 14.5) rotate(90) scale(12.083 11.8785)">
<stop offset="0.0001" stop-color="#17F4E7"/>
<stop offset="1" stop-color="#5F9BE1"/>
</radialGradient>
</defs>
</svg>
