<svg width="83" height="19" viewBox="0 0 83 19" fill="none" xmlns="http://www.w3.org/2000/svg">
<path d="M1.31818 5.64773L1.70455 3.36364H11.5398L11.1534 5.64773H7.625L6.07955 15H3.30682L4.85227 5.64773H1.31818ZM10.0753 15L11.5298 6.27273H14.2287L13.9616 7.86364H14.0526C14.3063 7.28788 14.6378 6.85985 15.0469 6.57955C15.456 6.29545 15.8991 6.15341 16.3764 6.15341C16.5052 6.15341 16.634 6.16288 16.7628 6.18182C16.8954 6.19697 17.0204 6.2197 17.1378 6.25L16.7287 8.67045C16.5999 8.62121 16.4313 8.58523 16.223 8.5625C16.0147 8.53598 15.8253 8.52273 15.6548 8.52273C15.3253 8.52273 15.0185 8.59659 14.7344 8.74432C14.4541 8.88826 14.2154 9.09091 14.0185 9.35227C13.8253 9.60985 13.6984 9.91288 13.6378 10.2614L12.8537 15H10.0753ZM18.919 15.1477C18.366 15.1477 17.8887 15.0549 17.4872 14.8693C17.0895 14.6799 16.7978 14.3939 16.6122 14.0114C16.4304 13.6288 16.3868 13.1515 16.4815 12.5795C16.5649 12.0947 16.7183 11.6875 16.9418 11.358C17.169 11.0246 17.4474 10.7538 17.777 10.5455C18.1103 10.3371 18.4815 10.178 18.8906 10.0682C19.2997 9.95833 19.7277 9.88447 20.1747 9.84659C20.6747 9.80114 21.08 9.75189 21.3906 9.69886C21.705 9.64583 21.9399 9.57197 22.0952 9.47727C22.2505 9.37879 22.3452 9.24242 22.3793 9.06818V9.03977C22.4247 8.74811 22.3622 8.52273 22.1918 8.36364C22.0213 8.20455 21.7656 8.125 21.4247 8.125C21.0611 8.125 20.7505 8.20455 20.4929 8.36364C20.2353 8.52273 20.0554 8.74242 19.9531 9.02273L17.4077 8.93182C17.5668 8.40152 17.8395 7.92803 18.2259 7.51136C18.6122 7.09091 19.1027 6.76136 19.6974 6.52273C20.2959 6.2803 20.9872 6.15909 21.7713 6.15909C22.3243 6.15909 22.8243 6.22538 23.2713 6.35795C23.7183 6.48674 24.0952 6.67614 24.402 6.92614C24.7126 7.17235 24.9342 7.47538 25.0668 7.83523C25.1993 8.19508 25.2277 8.60606 25.152 9.06818L24.1577 15H21.544L21.7486 13.7841H21.6804C21.4759 14.0795 21.2353 14.3295 20.9588 14.5341C20.6861 14.7386 20.3793 14.892 20.0384 14.9943C19.6974 15.0966 19.3243 15.1477 18.919 15.1477ZM20.0895 13.3295C20.3812 13.3295 20.6577 13.2689 20.919 13.1477C21.1804 13.0265 21.4001 12.8598 21.5781 12.6477C21.7599 12.4318 21.8755 12.1818 21.9247 11.8977L22.0554 11.0682C21.9759 11.1098 21.8755 11.1477 21.7543 11.1818C21.633 11.2159 21.5043 11.2481 21.3679 11.2784C21.2315 11.3049 21.0914 11.3314 20.9474 11.358C20.8073 11.3807 20.6728 11.4015 20.544 11.4205C20.2713 11.4621 20.0346 11.5265 19.8338 11.6136C19.633 11.7008 19.4721 11.8144 19.3509 11.9545C19.2334 12.0909 19.1615 12.2538 19.1349 12.4432C19.0895 12.7273 19.1558 12.947 19.3338 13.1023C19.5118 13.2538 19.7637 13.3295 20.0895 13.3295ZM29.4815 10.0227L28.652 15H25.8736L27.3281 6.27273H29.9702L29.7088 7.875H29.8054C30.0781 7.34091 30.474 6.92235 30.9929 6.61932C31.5118 6.3125 32.0952 6.15909 32.7429 6.15909C33.3527 6.15909 33.8622 6.29545 34.2713 6.56818C34.6804 6.84091 34.9702 7.22348 35.1406 7.71591C35.3111 8.20455 35.3395 8.77841 35.2259 9.4375L34.294 15H31.5156L32.3509 9.98295C32.4342 9.50189 32.3755 9.125 32.1747 8.85227C31.9777 8.57576 31.6558 8.4375 31.2088 8.4375C30.9171 8.4375 30.6501 8.50189 30.4077 8.63068C30.169 8.75568 29.9683 8.93561 29.8054 9.17045C29.6463 9.4053 29.5384 9.68939 29.4815 10.0227ZM44.6051 8.9375L42.0994 9.00568C42.1032 8.82008 42.0616 8.6572 41.9744 8.51705C41.8873 8.37311 41.7642 8.26136 41.6051 8.18182C41.446 8.10227 41.2566 8.0625 41.0369 8.0625C40.6809 8.0625 40.3608 8.14205 40.0767 8.30114C39.7964 8.46023 39.6392 8.66667 39.6051 8.92045C39.5786 9.05682 39.6165 9.17614 39.7188 9.27841C39.821 9.37689 40.0483 9.46401 40.4006 9.53977L42.0369 9.85795C42.8778 10.0246 43.4877 10.3144 43.8665 10.7273C44.2491 11.1364 44.3854 11.678 44.2756 12.3523C44.1771 12.928 43.9233 13.4261 43.5142 13.8466C43.1089 14.267 42.5919 14.5928 41.9631 14.8239C41.3381 15.0511 40.6468 15.1648 39.8892 15.1648C38.6089 15.1648 37.643 14.9072 36.9915 14.392C36.3438 13.8731 36.0407 13.1856 36.0824 12.3295L38.7869 12.2614C38.7983 12.5833 38.9062 12.8258 39.1108 12.9886C39.3191 13.1477 39.6013 13.2311 39.9574 13.2386C40.3475 13.2462 40.6847 13.1648 40.9688 12.9943C41.2528 12.8239 41.4119 12.6136 41.446 12.3636C41.4688 12.2008 41.4138 12.0739 41.2812 11.983C41.1525 11.892 40.9119 11.8106 40.5597 11.7386L39.0824 11.4489C38.2339 11.286 37.6203 10.9792 37.2415 10.5284C36.8665 10.0739 36.7377 9.49432 36.8551 8.78977C36.9536 8.22917 37.1847 7.75379 37.5483 7.36364C37.9157 6.9697 38.3949 6.67045 38.9858 6.46591C39.5805 6.26136 40.2585 6.15909 41.0199 6.15909C42.2396 6.15909 43.16 6.4072 43.7812 6.90341C44.4062 7.39583 44.6809 8.07386 44.6051 8.9375ZM49.9105 3.36364L47.9787 15H45.2003L47.1321 3.36364H49.9105ZM52.1847 15.1477C51.6316 15.1477 51.1544 15.0549 50.7528 14.8693C50.3551 14.6799 50.0634 14.3939 49.8778 14.0114C49.696 13.6288 49.6525 13.1515 49.7472 12.5795C49.8305 12.0947 49.9839 11.6875 50.2074 11.358C50.4347 11.0246 50.7131 10.7538 51.0426 10.5455C51.3759 10.3371 51.7472 10.178 52.1562 10.0682C52.5653 9.95833 52.9934 9.88447 53.4403 9.84659C53.9403 9.80114 54.3456 9.75189 54.6562 9.69886C54.9706 9.64583 55.2055 9.57197 55.3608 9.47727C55.5161 9.37879 55.6108 9.24242 55.6449 9.06818V9.03977C55.6903 8.74811 55.6278 8.52273 55.4574 8.36364C55.2869 8.20455 55.0312 8.125 54.6903 8.125C54.3267 8.125 54.0161 8.20455 53.7585 8.36364C53.5009 8.52273 53.321 8.74242 53.2188 9.02273L50.6733 8.93182C50.8324 8.40152 51.1051 7.92803 51.4915 7.51136C51.8778 7.09091 52.3684 6.76136 52.9631 6.52273C53.5616 6.2803 54.2528 6.15909 55.0369 6.15909C55.59 6.15909 56.09 6.22538 56.5369 6.35795C56.9839 6.48674 57.3608 6.67614 57.6676 6.92614C57.9782 7.17235 58.1998 7.47538 58.3324 7.83523C58.465 8.19508 58.4934 8.60606 58.4176 9.06818L57.4233 15H54.8097L55.0142 13.7841H54.946C54.7415 14.0795 54.5009 14.3295 54.2244 14.5341C53.9517 14.7386 53.6449 14.892 53.304 14.9943C52.9631 15.0966 52.59 15.1477 52.1847 15.1477ZM53.3551 13.3295C53.6468 13.3295 53.9233 13.2689 54.1847 13.1477C54.446 13.0265 54.6657 12.8598 54.8438 12.6477C55.0256 12.4318 55.1411 12.1818 55.1903 11.8977L55.321 11.0682C55.2415 11.1098 55.1411 11.1477 55.0199 11.1818C54.8987 11.2159 54.7699 11.2481 54.6335 11.2784C54.4972 11.3049 54.357 11.3314 54.2131 11.358C54.0729 11.3807 53.9384 11.4015 53.8097 11.4205C53.5369 11.4621 53.3002 11.5265 53.0994 11.6136C52.8987 11.7008 52.7377 11.8144 52.6165 11.9545C52.4991 12.0909 52.4271 12.2538 52.4006 12.4432C52.3551 12.7273 52.4214 12.947 52.5994 13.1023C52.7775 13.2538 53.0294 13.3295 53.3551 13.3295ZM65.5028 6.27273L65.1562 8.31818H59.6506L59.9972 6.27273H65.5028ZM61.4915 4.18182H64.2699L62.929 12.2557C62.9025 12.4261 62.9063 12.5644 62.9403 12.6705C62.9782 12.7727 63.0464 12.8466 63.1449 12.892C63.2472 12.9337 63.3722 12.9545 63.5199 12.9545C63.6222 12.9545 63.7358 12.9432 63.8608 12.9205C63.9858 12.8977 64.0805 12.8807 64.1449 12.8693L64.2358 14.875C64.0881 14.9167 63.8892 14.964 63.6392 15.017C63.393 15.0739 63.1051 15.1098 62.7756 15.125C62.1089 15.1515 61.5578 15.0739 61.1222 14.892C60.6903 14.7064 60.3854 14.4186 60.2074 14.0284C60.0331 13.6383 59.9991 13.1496 60.1051 12.5625L61.4915 4.18182ZM69.4403 15.1648C68.5199 15.1648 67.7604 14.9754 67.1619 14.5966C66.5672 14.2178 66.1487 13.6894 65.9062 13.0114C65.6638 12.3333 65.6165 11.5455 65.7642 10.6477C65.9119 9.75379 66.2169 8.9697 66.679 8.29545C67.1411 7.62121 67.732 7.09659 68.4517 6.72159C69.1714 6.34659 69.9877 6.15909 70.9006 6.15909C71.8172 6.15909 72.5729 6.34848 73.1676 6.72727C73.7661 7.10606 74.1866 7.63447 74.429 8.3125C74.6752 8.99053 74.7244 9.7803 74.5767 10.6818C74.429 11.5758 74.1222 12.3598 73.6562 13.0341C73.1903 13.7045 72.5994 14.2273 71.8835 14.6023C71.1676 14.9773 70.3532 15.1648 69.4403 15.1648ZM69.7528 13.0682C70.0938 13.0682 70.3987 12.9659 70.6676 12.7614C70.9403 12.5568 71.1695 12.2708 71.3551 11.9034C71.5407 11.536 71.6733 11.1098 71.7528 10.625C71.8324 10.1477 71.84 9.72917 71.7756 9.36932C71.715 9.00568 71.5862 8.72348 71.3892 8.52273C71.1922 8.31818 70.9252 8.21591 70.5881 8.21591C70.2472 8.21591 69.9403 8.32008 69.6676 8.52841C69.3949 8.73295 69.1657 9.01894 68.9801 9.38636C68.7983 9.75 68.6676 10.1761 68.5881 10.6648C68.5085 11.142 68.4991 11.5606 68.5597 11.9205C68.6203 12.2803 68.7509 12.5625 68.9517 12.767C69.1525 12.9678 69.4195 13.0682 69.7528 13.0682ZM75.2784 15L76.733 6.27273H79.4318L79.1648 7.86364H79.2557C79.5095 7.28788 79.8409 6.85985 80.25 6.57955C80.6591 6.29545 81.1023 6.15341 81.5795 6.15341C81.7083 6.15341 81.8371 6.16288 81.9659 6.18182C82.0985 6.19697 82.2235 6.2197 82.3409 6.25L81.9318 8.67045C81.803 8.62121 81.6345 8.58523 81.4261 8.5625C81.2178 8.53598 81.0284 8.52273 80.858 8.52273C80.5284 8.52273 80.2216 8.59659 79.9375 8.74432C79.6572 8.88826 79.4186 9.09091 79.2216 9.35227C79.0284 9.60985 78.9015 9.91288 78.8409 10.2614L78.0568 15H75.2784Z" fill="url(#paint0_linear_2314_16)"/>
<defs>
<linearGradient id="paint0_linear_2314_16" x1="0" y1="9.5" x2="82" y2="9.5" gradientUnits="userSpaceOnUse">
<stop offset="0.42" stop-color="#5F9BE1"/>
<stop offset="1" stop-color="#17F4E7"/>
</linearGradient>
</defs>
</svg>
