<svg width="479" height="198" viewBox="0 0 479 198" fill="none" xmlns="http://www.w3.org/2000/svg">
    <g clip-path="url(#clip0_2330_35)">
        <rect width="479" height="198" fill="inherit"/>
        <path fill-rule="evenodd" clip-rule="evenodd"
              d="M467.411 -123.514C476.43 -139.474 513.457 -138.965 518.312 -120.962C527.925 -85.3245 489.586 -49.0584 497.258 -12.8599C500.55 2.67199 526.153 -20.1004 540.39 -16.8033C560.327 -12.1861 584.225 -8.35984 595.857 9.97483C604.901 24.2306 604.799 55.3722 589.874 61.1997C560.5 72.669 512.942 18.3106 497.88 48.2307C480.404 82.9454 546.641 116.259 542.339 155.624C540.095 176.156 502.845 154.001 487.661 141.723C471.608 128.742 476.56 85.8013 456.615 86.306C430.408 86.9692 423.366 154.757 399.072 143.964C376.797 134.068 415.33 93.6092 413.877 67.3185C413.306 57.0032 391.984 56.1837 393.656 46.0132C395.914 32.2836 414.012 29.3301 421.921 18.3983C425.43 13.5482 428.642 6.38215 426.461 0.672769C416.191 -26.2096 361.359 -64.8522 386.557 -74.174C415.39 -84.8409 429.101 6.08471 455.689 -10.1402C486.272 -28.8032 448.982 -90.9009 467.411 -123.514Z"
              fill="url(#paint0_linear_2330_35)"/>
        <path
                d="M163.364 82.9976L164.35 77.1693H189.446L188.46 82.9976H179.457L175.513 106.862H168.438L172.382 82.9976H163.364ZM185.709 106.862L189.421 84.5925H196.308L195.626 88.652H195.858C196.506 87.1829 197.352 86.0906 198.395 85.3754C199.439 84.6505 200.57 84.288 201.788 84.288C202.117 84.288 202.445 84.3122 202.774 84.3605C203.112 84.3992 203.431 84.4571 203.731 84.5345L202.687 90.7108C202.358 90.5852 201.928 90.4933 201.397 90.4353C200.865 90.3677 200.382 90.3338 199.947 90.3338C199.106 90.3338 198.323 90.5223 197.598 90.8993C196.883 91.2666 196.274 91.7837 195.771 92.4506C195.278 93.1079 194.955 93.8811 194.8 94.7704L192.799 106.862H185.709ZM208.276 107.239C206.865 107.239 205.647 107.002 204.623 106.529C203.608 106.045 202.863 105.316 202.39 104.339C201.926 103.363 201.815 102.145 202.056 100.686C202.269 99.4485 202.66 98.4095 203.231 97.5686C203.811 96.718 204.521 96.0269 205.362 95.4953C206.213 94.9637 207.16 94.5577 208.204 94.2774C209.248 93.9971 210.34 93.8086 211.48 93.712C212.756 93.596 213.79 93.4703 214.583 93.335C215.385 93.1997 215.984 93.0112 216.381 92.7696C216.777 92.5183 217.019 92.1703 217.106 91.7257V91.6532C217.222 90.909 217.062 90.3338 216.627 89.9279C216.192 89.5219 215.54 89.319 214.67 89.319C213.742 89.319 212.949 89.5219 212.292 89.9279C211.635 90.3338 211.176 90.8945 210.915 91.6097L204.42 91.3777C204.826 90.0245 205.521 88.8163 206.507 87.7531C207.493 86.6802 208.745 85.8393 210.262 85.2304C211.79 84.6118 213.554 84.3025 215.554 84.3025C216.966 84.3025 218.241 84.4716 219.382 84.8099C220.523 85.1386 221.484 85.6219 222.267 86.2598C223.06 86.8881 223.625 87.6613 223.963 88.5795C224.302 89.4978 224.374 90.5465 224.181 91.7257L221.644 106.862H214.974L215.496 103.759H215.322C214.8 104.513 214.187 105.151 213.481 105.673C212.785 106.195 212.002 106.587 211.132 106.848C210.262 107.109 209.31 107.239 208.276 107.239ZM211.263 102.6C212.007 102.6 212.713 102.445 213.38 102.136C214.047 101.826 214.607 101.401 215.061 100.86C215.525 100.309 215.82 99.6708 215.946 98.9459L216.279 96.8291C216.076 96.9355 215.82 97.0321 215.511 97.1191C215.202 97.2061 214.873 97.2883 214.525 97.3656C214.177 97.4332 213.819 97.5009 213.452 97.5686C213.094 97.6266 212.751 97.6797 212.423 97.728C211.727 97.8344 211.123 97.9987 210.61 98.221C210.098 98.4433 209.687 98.7333 209.378 99.0909C209.078 99.4389 208.895 99.8545 208.827 100.338C208.711 101.063 208.88 101.623 209.335 102.02C209.789 102.406 210.432 102.6 211.263 102.6ZM235.229 94.1614L233.112 106.862H226.022L229.734 84.5925H236.476L235.809 88.681H236.055C236.751 87.3182 237.761 86.2501 239.085 85.4769C240.41 84.694 241.898 84.3025 243.551 84.3025C245.107 84.3025 246.407 84.6505 247.451 85.3464C248.495 86.0423 249.234 87.0185 249.669 88.2751C250.104 89.5219 250.177 90.9863 249.887 92.6681L247.509 106.862H240.419L242.55 94.0599C242.763 92.8324 242.613 91.8707 242.101 91.1748C241.598 90.4692 240.777 90.1164 239.636 90.1164C238.892 90.1164 238.211 90.2807 237.592 90.6093C236.983 90.9283 236.471 91.3874 236.055 91.9867C235.649 92.5859 235.374 93.3109 235.229 94.1614ZM273.82 91.3922L267.426 91.5662C267.436 91.0926 267.329 90.677 267.107 90.3193C266.885 89.9521 266.571 89.6669 266.165 89.4639C265.759 89.261 265.276 89.1595 264.715 89.1595C263.806 89.1595 262.99 89.3625 262.265 89.7684C261.549 90.1744 261.148 90.7011 261.061 91.3487C260.994 91.6967 261.09 92.0012 261.351 92.2621C261.612 92.5134 262.192 92.7358 263.091 92.9291L267.267 93.741C269.412 94.1663 270.969 94.9057 271.935 95.9592C272.911 97.0031 273.259 98.3853 272.979 100.106C272.728 101.575 272.08 102.846 271.036 103.919C270.002 104.992 268.683 105.823 267.078 106.413C265.483 106.993 263.719 107.283 261.786 107.283C258.519 107.283 256.055 106.625 254.392 105.311C252.739 103.987 251.966 102.232 252.072 100.048L258.974 99.8738C259.003 100.695 259.278 101.314 259.8 101.73C260.332 102.136 261.052 102.348 261.96 102.368C262.956 102.387 263.816 102.179 264.541 101.744C265.266 101.309 265.672 100.773 265.759 100.135C265.817 99.7192 265.677 99.3954 265.338 99.1634C265.01 98.9314 264.396 98.7236 263.497 98.54L259.727 97.8005C257.562 97.3849 255.997 96.602 255.03 95.4518C254.073 94.2919 253.744 92.8131 254.044 91.0153C254.295 89.5848 254.885 88.3717 255.813 87.3762C256.75 86.3709 257.973 85.6074 259.481 85.0854C260.998 84.5635 262.729 84.3025 264.671 84.3025C267.784 84.3025 270.133 84.9356 271.718 86.2018C273.313 87.4583 274.013 89.1885 273.82 91.3922ZM287.358 77.1693L282.428 106.862H275.339L280.268 77.1693H287.358ZM293.161 107.239C291.75 107.239 290.532 107.002 289.507 106.529C288.492 106.045 287.748 105.316 287.274 104.339C286.811 103.363 286.699 102.145 286.941 100.686C287.154 99.4485 287.545 98.4095 288.115 97.5686C288.695 96.718 289.406 96.0269 290.247 95.4953C291.097 94.9637 292.044 94.5577 293.088 94.2774C294.132 93.9971 295.224 93.8086 296.365 93.712C297.641 93.596 298.675 93.4703 299.468 93.335C300.27 93.1997 300.869 93.0112 301.265 92.7696C301.662 92.5183 301.903 92.1703 301.99 91.7257V91.6532C302.106 90.909 301.947 90.3338 301.512 89.9279C301.077 89.5219 300.425 89.319 299.555 89.319C298.627 89.319 297.834 89.5219 297.177 89.9279C296.52 90.3338 296.061 90.8945 295.8 91.6097L289.304 91.3777C289.71 90.0245 290.406 88.8163 291.392 87.7531C292.378 86.6802 293.63 85.8393 295.147 85.2304C296.674 84.6118 298.438 84.3025 300.439 84.3025C301.85 84.3025 303.126 84.4716 304.267 84.8099C305.407 85.1386 306.369 85.6219 307.152 86.2598C307.944 86.8881 308.51 87.6613 308.848 88.5795C309.186 89.4978 309.259 90.5465 309.066 91.7257L306.528 106.862H299.859L300.381 103.759H300.207C299.685 104.513 299.071 105.151 298.366 105.673C297.67 106.195 296.887 106.587 296.017 106.848C295.147 107.109 294.195 107.239 293.161 107.239ZM296.148 102.6C296.892 102.6 297.597 102.445 298.264 102.136C298.931 101.826 299.492 101.401 299.946 100.86C300.41 100.309 300.705 99.6708 300.831 98.9459L301.164 96.8291C300.961 96.9355 300.705 97.0321 300.396 97.1191C300.086 97.2061 299.758 97.2883 299.41 97.3656C299.062 97.4332 298.704 97.5009 298.337 97.5686C297.979 97.6266 297.636 97.6797 297.307 97.728C296.611 97.8344 296.007 97.9987 295.495 98.221C294.983 98.4433 294.572 98.7333 294.263 99.0909C293.963 99.4389 293.779 99.8545 293.712 100.338C293.596 101.063 293.765 101.623 294.219 102.02C294.674 102.406 295.316 102.6 296.148 102.6ZM327.145 84.5925L326.261 89.8119H312.212L313.096 84.5925H327.145ZM316.909 79.257H323.999L320.577 99.8593C320.51 100.294 320.519 100.647 320.606 100.918C320.703 101.179 320.877 101.367 321.128 101.483C321.389 101.589 321.708 101.643 322.085 101.643C322.346 101.643 322.636 101.614 322.955 101.556C323.274 101.498 323.516 101.454 323.68 101.425L323.912 106.543C323.535 106.649 323.028 106.77 322.39 106.906C321.761 107.051 321.027 107.142 320.186 107.181C318.485 107.249 317.078 107.051 315.967 106.587C314.865 106.113 314.087 105.378 313.633 104.383C313.188 103.387 313.101 102.14 313.372 100.642L316.909 79.257ZM337.193 107.283C334.844 107.283 332.906 106.799 331.379 105.833C329.861 104.866 328.793 103.518 328.175 101.788C327.556 100.057 327.435 98.047 327.812 95.7563C328.189 93.4752 328.967 91.4744 330.146 89.7539C331.326 88.0334 332.833 86.6947 334.67 85.7378C336.506 84.7809 338.589 84.3025 340.919 84.3025C343.258 84.3025 345.186 84.7858 346.704 85.7523C348.231 86.7189 349.304 88.0673 349.922 89.7974C350.55 91.5276 350.676 93.5428 350.299 95.8433C349.922 98.1243 349.139 100.125 347.95 101.846C346.762 103.556 345.254 104.89 343.427 105.847C341.6 106.804 339.522 107.283 337.193 107.283ZM337.99 101.933C338.86 101.933 339.638 101.672 340.324 101.15C341.02 100.628 341.605 99.898 342.079 98.9604C342.552 98.0228 342.89 96.9355 343.093 95.6983C343.296 94.4804 343.316 93.4123 343.151 92.4941C342.997 91.5662 342.668 90.8461 342.166 90.3338C341.663 89.8119 340.982 89.5509 340.121 89.5509C339.251 89.5509 338.468 89.8167 337.773 90.3483C337.077 90.8703 336.492 91.6 336.018 92.5376C335.554 93.4655 335.221 94.5529 335.018 95.7998C334.815 97.0176 334.791 98.0857 334.945 99.0039C335.1 99.9221 335.433 100.642 335.946 101.164C336.458 101.676 337.139 101.933 337.99 101.933ZM352.09 106.862L355.801 84.5925H362.688L362.007 88.652H362.239C362.886 87.1829 363.732 86.0906 364.776 85.3754C365.82 84.6505 366.951 84.288 368.168 84.288C368.497 84.288 368.826 84.3122 369.154 84.3605C369.493 84.3992 369.812 84.4571 370.111 84.5345L369.067 90.7108C368.739 90.5852 368.309 90.4933 367.777 90.4353C367.245 90.3677 366.762 90.3338 366.327 90.3338C365.486 90.3338 364.703 90.5223 363.978 90.8993C363.263 91.2666 362.654 91.7837 362.152 92.4506C361.659 93.1079 361.335 93.8811 361.18 94.7704L359.179 106.862H352.09Z"
                fill="url(#paint1_linear_2330_35)"/>
        <path
                d="M119.917 62.3333C121.918 62.3333 123.771 62.9684 125.285 64.0476C121.301 66.1227 117.638 68.7343 113.75 70.9789L116.833 76.3193C121.69 73.5134 126.244 69.9984 131.51 67.9758C132.981 67.4146 134.571 67.2381 136.129 67.4628C137.687 67.6875 139.162 68.3061 140.415 69.26C141.667 70.2139 142.656 71.4716 143.286 72.9141C143.917 74.3566 144.169 75.9361 144.019 77.5033C140.23 75.089 136.135 73.2205 132.25 70.9789L129.167 76.3193C134.023 79.1251 139.348 81.3081 143.729 84.8601C144.95 85.8536 145.898 87.1421 146.482 88.6038C147.066 90.0656 147.268 91.6522 147.068 93.2135C146.868 94.7749 146.273 96.2595 145.339 97.5267C144.405 98.794 143.163 99.8021 141.731 100.456C141.932 95.9663 141.5 91.4862 141.5 87H135.333C135.333 92.6055 136.104 98.3127 135.219 103.884C134.969 105.439 134.327 106.903 133.353 108.14C132.379 109.377 131.105 110.345 129.653 110.952C128.2 111.559 126.617 111.786 125.052 111.61C123.488 111.435 121.994 110.863 120.712 109.949C124.699 107.874 128.365 105.263 132.25 103.021L129.167 97.6806C124.31 100.486 119.756 104.001 114.49 106.024C113.019 106.585 111.429 106.762 109.871 106.537C108.313 106.312 106.838 105.694 105.585 104.74C104.333 103.786 103.345 102.528 102.714 101.086C102.083 99.6433 101.831 98.0638 101.981 96.4966C105.773 98.9078 109.865 100.776 113.75 103.021L116.833 97.6806C111.977 94.8748 106.652 92.6918 102.268 89.1398C101.047 88.1461 100.099 86.8574 99.5155 85.3955C98.9316 83.9336 98.7303 82.3469 98.9306 80.7855C99.131 79.2241 99.7264 77.7396 100.66 76.4725C101.595 75.2054 102.836 74.1975 104.269 73.5443C104.068 78.0336 104.5 82.5137 104.5 87H110.667C110.667 81.3945 109.896 75.6872 110.781 70.1156C111.13 67.9444 112.242 65.9686 113.916 64.5425C115.59 63.1164 117.717 62.3332 119.917 62.3333ZM131.612 61.5378C129.829 59.4627 127.526 57.8994 124.939 57.0083C122.352 56.1172 119.575 55.9304 116.892 56.4671C114.209 57.0037 111.717 58.2446 109.672 60.0622C107.627 61.8799 106.103 64.2089 105.255 66.8103C102.567 67.3169 100.061 68.5298 97.996 70.3246C95.9308 72.1193 94.3804 74.4312 93.5038 77.0231C92.6272 79.6149 92.456 82.3933 93.0078 85.0732C93.5596 87.753 94.8145 90.2378 96.6437 92.2725C95.7377 94.8546 95.5352 97.6313 96.0569 100.318C96.5787 103.004 97.8059 105.503 99.6125 107.558C101.419 109.613 103.74 111.151 106.337 112.013C108.935 112.874 111.714 113.03 114.391 112.462C116.174 114.537 118.478 116.101 121.064 116.992C123.651 117.883 126.428 118.07 129.111 117.533C131.794 116.996 134.286 115.755 136.331 113.938C138.376 112.12 139.9 109.791 140.748 107.19C143.436 106.683 145.942 105.47 148.007 103.675C150.072 101.881 151.623 99.5687 152.499 96.9768C153.376 94.385 153.547 91.6066 152.995 88.9267C152.444 86.2469 151.189 83.7621 149.359 81.7275C150.265 79.1453 150.468 76.3686 149.946 73.6824C149.424 70.9961 148.197 68.4971 146.391 66.4419C144.584 64.3866 142.263 62.8492 139.666 61.9873C137.068 61.1255 134.289 60.9703 131.612 61.5378Z"
                fill="url(#paint2_radial_2330_35)"/>
        <path
                d="M114.04 82.5155L114.779 78.1442H133.602L132.862 82.5155H126.11L123.152 100.414H117.846L120.803 82.5155H114.04Z"
                fill="#2EB0CC"/>
    </g>
    <defs>
        <linearGradient id="paint0_linear_2330_35" x1="380" y1="-135" x2="651.713" y2="69.9423"
                        gradientUnits="userSpaceOnUse">
            <stop stop-color="#0081FF"/>
            <stop offset="1" stop-color="#1CBBB4"/>
        </linearGradient>
        <linearGradient id="paint1_linear_2330_35" x1="160" y1="92.3621" x2="369" y2="92.3621"
                        gradientUnits="userSpaceOnUse">
            <stop offset="0.42" stop-color="#5F9BE1"/>
            <stop offset="1" stop-color="#17F4E7"/>
        </linearGradient>
        <radialGradient id="paint2_radial_2330_35" cx="0" cy="0" r="1" gradientUnits="userSpaceOnUse"
                        gradientTransform="translate(123.002 87) rotate(90) scale(30.8325 30.3106)">
            <stop offset="0.0001" stop-color="#17F4E7"/>
            <stop offset="1" stop-color="#5F9BE1"/>
        </radialGradient>
        <clipPath id="clip0_2330_35">
            <rect width="479" height="198" fill="white"/>
        </clipPath>
    </defs>
</svg>
